# xmcd CD database file
#
# Track frame offsets:
#	150
#	22787
#	70562
#	103647
#	127624
#	139930
#	166191
#
# Disc length: 2740 seconds
#
# Revision: 0
# Processed by: cddbd v1.5.2PL0 Copyright (c) Steve Scherf et al.
# Submitted via: CDex 1.70beta2
#
DISCID=490ab207
DTITLE=The Dave Brubeck Quartet - Jazz: Red Hot And Cool (vinyl - mono)
DYEAR=1955
DGENRE=Jazz
TTITLE0=Lover
TTITLE1=Little Girl Blue
TTITLE2=Fare Thee Well, Annabelle
TTITLE3=Somteimes I'm Happy
TTITLE4=The Duke
TTITLE5=Indiana
TTITLE6=Love Walked in
EXTD=YEAR: 1955
EXTT0=
EXTT1=
EXTT2=
EXTT3=
EXTT4=
EXTT5=
EXTT6=
PLAYORDER=
